<svg width="127" height="132" viewBox="0 0 127 132" fill="none" xmlns="http://www.w3.org/2000/svg">
<path d="M32.2767 15.0788C37.6279 11.71 43.7547 12.0553 49.7885 12.0554C49.8023 12.0554 50.5019 12.0886 51.1888 12.1364C51.5328 12.1604 51.8752 12.1884 52.1283 12.2175C52.2545 12.232 52.3602 12.247 52.433 12.2624C52.4687 12.2699 52.4998 12.2774 52.5219 12.2868C52.5321 12.2912 52.5454 12.2985 52.556 12.3093C52.5617 12.315 52.5692 12.324 52.5726 12.3366L52.5687 12.3766C52.5359 12.4449 52.4677 12.4954 52.3851 12.5329C52.3014 12.571 52.1949 12.5998 52.0756 12.6218C51.8367 12.6657 51.5349 12.6833 51.2299 12.6882C50.9244 12.6931 50.6133 12.685 50.3539 12.6755C50.093 12.6659 49.8869 12.655 49.7885 12.655C43.5753 12.655 38.2874 13.6544 33.8246 18.4753C29.0002 23.6894 27.2068 31.228 28.7738 38.112L28.9301 38.7516C30.6533 45.3396 35.5356 51.0911 42.1771 53.0534C44.0806 53.6139 46.1164 53.7546 48.1703 53.7546C49.1972 53.7546 50.2285 53.7194 51.2494 53.6843C52.2698 53.6491 53.2806 53.613 54.266 53.613C54.285 53.6132 54.9812 53.6474 55.6654 53.695C56.0092 53.7189 56.3518 53.746 56.6049 53.7751C56.7309 53.7896 56.8367 53.8047 56.9095 53.82C56.9452 53.8275 56.9764 53.836 56.9984 53.8454C57.0087 53.8498 57.022 53.8571 57.0326 53.8679C57.0382 53.8736 57.0457 53.8826 57.0492 53.8952L57.0482 53.8972L57.0502 53.8981V53.9138H57.0472C57.0467 53.9209 57.0482 53.9279 57.0453 53.9343L57.0365 53.9323C57.0015 53.9936 56.9386 54.0399 56.8617 54.0749C56.7779 54.1129 56.6714 54.1418 56.5521 54.1638C56.3134 54.2077 56.0123 54.2262 55.7074 54.2311C55.4019 54.236 55.0899 54.228 54.8304 54.2184C54.5699 54.2089 54.3644 54.198 54.266 54.1979C49.4743 54.1979 44.4266 54.5962 39.6635 53.8766C31.4219 52.631 25.0467 46.1688 23.2142 38.1266C21.2333 29.4668 24.647 19.8885 32.2767 15.0788Z" fill="#191919" stroke="#191919" stroke-width="0.1"/>
<path d="M60.7582 11.8916C61.2661 11.8916 62.7963 11.8955 64.1996 11.9443C64.9009 11.9688 65.5718 12.0045 66.0677 12.0566C66.3152 12.0827 66.5215 12.1128 66.6664 12.1484C66.7384 12.1662 66.7991 12.1863 66.8422 12.209C66.8634 12.2202 66.8829 12.2338 66.8978 12.25C66.9132 12.2668 66.9261 12.2892 66.9261 12.3164V95.7266H75.1888C77.1257 95.7266 79.1643 95.9216 81.0834 95.7266C85.8942 95.2282 90.3674 92.0587 93.1976 88.2773C99.0596 80.4432 98.9505 68.9515 92.8939 61.2578C90.0404 57.6403 85.6834 54.7121 81.0199 54.2139C79.8436 54.0893 78.6335 54.0889 77.4203 54.1201C76.2082 54.1513 74.9905 54.2139 73.806 54.2139C73.7857 54.2135 73.0902 54.1804 72.4066 54.1328C72.0628 54.1089 71.7203 54.0808 71.4672 54.0518C71.341 54.0373 71.2353 54.0222 71.1625 54.0068C71.1267 53.9993 71.0956 53.9909 71.0736 53.9814C71.0634 53.9771 71.05 53.9705 71.0394 53.96C71.0338 53.9543 71.0263 53.9451 71.0228 53.9326C71.0191 53.9188 71.0211 53.9046 71.0267 53.8926V53.8916C71.0597 53.8235 71.1279 53.7738 71.2103 53.7363C71.2941 53.6983 71.4006 53.6694 71.5199 53.6475C71.7587 53.6035 72.0598 53.585 72.3646 53.5801C72.6702 53.5752 72.9821 53.5842 73.2416 53.5938C73.5021 53.6033 73.7076 53.6133 73.806 53.6133C76.8963 53.6133 80.1249 53.4412 83.2797 53.6543C86.4351 53.8674 89.5243 54.4667 92.3451 56.0098H92.3461L92.3617 56.0176L92.3627 56.0186C100.287 60.3548 103.671 69.2036 102.81 77.499C101.949 85.795 96.8409 93.5495 87.7719 95.6924C83.2797 96.7489 78.3313 96.3262 73.767 96.3262H59.5863C59.5709 96.3261 58.8721 96.2929 58.1859 96.2451C57.8423 96.2212 57.5004 96.1941 57.2474 96.165C57.1214 96.1506 57.0156 96.1354 56.9427 96.1201C56.9071 96.1126 56.8759 96.1041 56.8539 96.0947C56.8436 96.0903 56.8293 96.083 56.8187 96.0723C56.8131 96.0665 56.8065 96.0573 56.8031 96.0449C56.7994 96.0312 56.8004 96.0169 56.806 96.0049H56.807C56.8399 95.9366 56.908 95.8862 56.9906 95.8486C57.0742 95.8107 57.1802 95.7827 57.2992 95.7607C57.538 95.7168 57.8399 95.6983 58.1449 95.6934C58.4504 95.6885 58.7624 95.6965 59.0219 95.7061C59.2824 95.7156 59.4879 95.7266 59.5863 95.7266H61.3568V12.4834C60.964 12.4837 60.1574 12.4866 59.4359 12.4707C59.0592 12.4624 58.7045 12.4495 58.4437 12.4277C58.3137 12.4169 58.205 12.4036 58.1283 12.3877C58.0904 12.3798 58.0572 12.3706 58.0326 12.3594C58.0204 12.3538 58.0071 12.3461 57.9965 12.3359C57.9856 12.3255 57.974 12.3084 57.974 12.2852C57.974 12.2502 57.9943 12.2239 58.015 12.2061C58.036 12.188 58.0639 12.1725 58.0951 12.1592C58.1582 12.1323 58.2468 12.1085 58.351 12.0869C58.5599 12.0435 58.8437 12.0074 59.1459 11.9785C59.7507 11.9208 60.436 11.8916 60.7582 11.8916Z" fill="#191919" stroke="#191919" stroke-width="0.1"/>
<path d="M120.82 122.727L123.047 117.395C123.367 116.614 123.527 116.18 123.527 116.094C123.527 115.704 123.094 115.5 122.227 115.485V114.946H125.602V115.485C125.078 115.508 124.695 115.649 124.453 115.907C124.211 116.157 123.91 116.715 123.551 117.583L119.273 127.907C118.867 128.891 118.508 129.559 118.195 129.911C117.883 130.27 117.539 130.45 117.164 130.45C116.656 130.45 116.402 130.219 116.402 129.758C116.402 129.227 116.809 128.778 117.621 128.411C118.098 128.2 118.414 128.02 118.57 127.872C118.734 127.723 118.895 127.454 119.051 127.063L119.965 124.778L116.355 117.043C116.035 116.364 115.77 115.934 115.559 115.754C115.348 115.575 114.988 115.485 114.48 115.485V114.946H118.887V115.485C118.113 115.508 117.727 115.668 117.727 115.965C117.727 116.083 117.879 116.465 118.184 117.114L120.82 122.727Z" fill="#191919"/>
<path d="M114.176 115.485H111.281V121.286C111.281 122.176 111.32 122.778 111.398 123.09C111.477 123.395 111.641 123.641 111.891 123.829C112.148 124.016 112.422 124.11 112.711 124.11C113.273 124.11 113.762 123.79 114.176 123.149L114.551 123.372C114.309 123.887 113.949 124.278 113.473 124.543C113.004 124.801 112.527 124.93 112.043 124.93C111.48 124.93 110.984 124.766 110.555 124.438C110.133 124.102 109.867 123.711 109.758 123.266C109.656 122.821 109.605 122.04 109.605 120.922V115.485H108.211V114.946C108.852 114.93 109.426 114.661 109.934 114.137C110.441 113.614 110.766 112.879 110.906 111.934H111.281V114.946H114.176V115.485Z" fill="#191919"/>
<path d="M105.504 114.946V121.239C105.504 122.286 105.52 122.942 105.551 123.208C105.582 123.473 105.695 123.672 105.891 123.805C106.094 123.938 106.453 124.004 106.969 124.004V124.543C105.781 124.559 104.914 124.684 104.367 124.918H104.227C103.977 124.489 103.844 123.747 103.828 122.692C103.352 123.434 102.805 123.993 102.188 124.368C101.578 124.743 100.902 124.93 100.16 124.93C99.5195 124.93 98.9531 124.786 98.4609 124.497C97.9688 124.2 97.6289 123.84 97.4414 123.418C97.2617 122.997 97.1719 122.36 97.1719 121.508V118.239C97.1719 117.129 97.1523 116.454 97.1133 116.211C97.0742 115.961 96.9492 115.778 96.7383 115.661C96.5352 115.543 96.1562 115.485 95.6016 115.485V114.946H98.8594V121.602C98.8594 122.258 98.8984 122.735 98.9766 123.032C99.0547 123.329 99.2539 123.59 99.5742 123.817C99.8945 124.036 100.266 124.145 100.688 124.145C101.289 124.145 101.863 123.95 102.41 123.559C102.957 123.161 103.328 122.743 103.523 122.305C103.727 121.86 103.828 121.227 103.828 120.407V118.239C103.828 117.192 103.816 116.555 103.793 116.329C103.77 116.102 103.668 115.907 103.488 115.743C103.316 115.571 102.953 115.485 102.398 115.485H102.152V114.946H105.504Z" fill="#191919"/>
<path d="M94.3945 122.786H94.8281C94.7578 124.122 94.1016 124.79 92.8594 124.79C92.3281 124.79 91.9062 124.649 91.5938 124.368C91.2891 124.086 91.0898 123.668 90.9961 123.114C90.2148 123.668 89.5 124.086 88.8516 124.368C88.2109 124.649 87.6367 124.79 87.1289 124.79C86.4805 124.79 85.9219 124.602 85.4531 124.227C84.9844 123.852 84.75 123.356 84.75 122.739C84.75 121.934 85.1406 121.231 85.9219 120.629C86.7109 120.028 87.7969 119.442 89.1797 118.872L90.9961 118.133V117.665C90.9961 117 90.9531 116.52 90.8672 116.223C90.7812 115.926 90.5586 115.661 90.1992 115.426C89.8398 115.192 89.3672 115.075 88.7812 115.075C87.6094 115.075 86.957 115.465 86.8242 116.247C86.6992 117.043 86.3711 117.442 85.8398 117.442C85.3633 117.442 85.125 117.215 85.125 116.762C85.125 116.317 85.4414 115.84 86.0742 115.333C86.707 114.817 87.6914 114.559 89.0273 114.559C90.0195 114.559 90.7891 114.715 91.3359 115.028C91.8828 115.34 92.2422 115.696 92.4141 116.094C92.5938 116.493 92.6836 117.102 92.6836 117.922V121.801C92.6836 122.708 92.7305 123.29 92.8242 123.547C92.918 123.805 93.1211 123.934 93.4336 123.934C93.9492 123.934 94.2695 123.551 94.3945 122.786ZM90.9961 118.684L89.7188 119.2C87.7031 120.02 86.6953 121.051 86.6953 122.293C86.6953 122.786 86.8242 123.184 87.082 123.489C87.3398 123.786 87.6758 123.934 88.0898 123.934C88.457 123.934 88.8828 123.813 89.3672 123.571C89.8516 123.329 90.3945 122.965 90.9961 122.481V118.684Z" fill="#191919"/>
<path d="M82.9102 118.192H76.2188C76.1875 118.653 76.1719 118.997 76.1719 119.223C76.1719 120.911 76.4336 122.18 76.957 123.032C77.4883 123.875 78.2773 124.297 79.3242 124.297C80.7461 124.297 81.7539 123.661 82.3477 122.387H82.9102C82.6602 123.184 82.1641 123.809 81.4219 124.262C80.6797 124.708 79.8711 124.93 78.9961 124.93C78.1836 124.93 77.4141 124.727 76.6875 124.321C75.9688 123.907 75.3789 123.325 74.918 122.575C74.457 121.825 74.2266 120.915 74.2266 119.844C74.2266 118.329 74.6719 117.071 75.5625 116.071C76.4531 115.063 77.5664 114.559 78.9023 114.559C80.1602 114.559 81.1328 114.942 81.8203 115.708C82.5078 116.473 82.8711 117.301 82.9102 118.192ZM80.8594 117.723C80.8828 117.543 80.8945 117.383 80.8945 117.243C80.8945 116.555 80.6914 116.024 80.2852 115.649C79.8867 115.266 79.3945 115.075 78.8086 115.075C77.3867 115.075 76.5391 115.958 76.2656 117.723H80.8594Z" fill="#191919"/>
<path d="M66.9141 115.989C68.7188 116.122 70.0586 116.571 70.9336 117.336C71.8086 118.102 72.2461 119.059 72.2461 120.208C72.2461 121.208 71.9492 122.071 71.3555 122.797C70.7617 123.516 70 123.989 69.0703 124.215C68.1484 124.434 66.9102 124.543 65.3555 124.543H59.1211V124.004H59.7305C60.4102 124.004 60.8789 123.918 61.1367 123.747C61.4023 123.575 61.5703 123.309 61.6406 122.95C61.7109 122.583 61.7461 121.735 61.7461 120.407V112.672C61.7461 111.383 61.707 110.551 61.6289 110.176C61.5586 109.801 61.4023 109.543 61.1602 109.403C60.9258 109.262 60.4062 109.192 59.6016 109.192H59.2969V108.653L61.9102 108.583L64.8867 108.489C69.2305 108.489 71.4023 109.739 71.4023 112.239C71.4023 113.27 71.0273 114.098 70.2773 114.723C69.5352 115.348 68.4141 115.77 66.9141 115.989ZM64.043 115.766C64.2383 115.774 64.4023 115.778 64.5352 115.778C66.2227 115.778 67.375 115.512 67.9922 114.981C68.6094 114.45 68.918 113.59 68.918 112.403C68.918 111.575 68.7969 110.934 68.5547 110.481C68.3125 110.028 67.9492 109.68 67.4648 109.438C66.9805 109.188 66.1523 109.063 64.9805 109.063C64.6758 109.063 64.3633 109.075 64.043 109.098V115.766ZM64.043 116.34V119.879C64.043 121.387 64.0703 122.344 64.125 122.75C64.1797 123.157 64.3242 123.465 64.5586 123.676C64.8008 123.887 65.2734 123.993 65.9766 123.993C67.2266 123.993 68.1641 123.672 68.7891 123.032C69.4141 122.391 69.7266 121.43 69.7266 120.149C69.7266 118.836 69.3711 117.872 68.6602 117.254C67.957 116.629 66.7148 116.317 64.9336 116.317C64.6523 116.317 64.3555 116.325 64.043 116.34Z" fill="#191919"/>
<path d="M51.8789 122.786H52.3125C52.2422 124.122 51.5859 124.79 50.3438 124.79C49.8125 124.79 49.3906 124.649 49.0781 124.368C48.7734 124.086 48.5742 123.668 48.4805 123.114C47.6992 123.668 46.9844 124.086 46.3359 124.368C45.6953 124.649 45.1211 124.79 44.6133 124.79C43.9648 124.79 43.4062 124.602 42.9375 124.227C42.4688 123.852 42.2344 123.356 42.2344 122.739C42.2344 121.934 42.625 121.231 43.4062 120.629C44.1953 120.028 45.2812 119.442 46.6641 118.872L48.4805 118.133V117.665C48.4805 117 48.4375 116.52 48.3516 116.223C48.2656 115.926 48.043 115.661 47.6836 115.426C47.3242 115.192 46.8516 115.075 46.2656 115.075C45.0938 115.075 44.4414 115.465 44.3086 116.247C44.1836 117.043 43.8555 117.442 43.3242 117.442C42.8477 117.442 42.6094 117.215 42.6094 116.762C42.6094 116.317 42.9258 115.84 43.5586 115.333C44.1914 114.817 45.1758 114.559 46.5117 114.559C47.5039 114.559 48.2734 114.715 48.8203 115.028C49.3672 115.34 49.7266 115.696 49.8984 116.094C50.0781 116.493 50.168 117.102 50.168 117.922V121.801C50.168 122.708 50.2148 123.29 50.3086 123.547C50.4023 123.805 50.6055 123.934 50.918 123.934C51.4336 123.934 51.7539 123.551 51.8789 122.786ZM48.4805 118.684L47.2031 119.2C45.1875 120.02 44.1797 121.051 44.1797 122.293C44.1797 122.786 44.3086 123.184 44.5664 123.489C44.8242 123.786 45.1602 123.934 45.5742 123.934C45.9414 123.934 46.3672 123.813 46.8516 123.571C47.3359 123.329 47.8789 122.965 48.4805 122.481V118.684Z" fill="#191919"/>
<path d="M39.2227 108.43V121.25C39.2227 122.274 39.2344 122.918 39.2578 123.184C39.2891 123.45 39.4023 123.653 39.5977 123.793C39.793 123.934 40.1406 124.004 40.6406 124.004H40.9219V124.543H35.7891V124.004H36.1172C36.5859 124.004 36.918 123.942 37.1133 123.817C37.3164 123.684 37.4375 123.5 37.4766 123.266C37.5156 123.032 37.5352 122.36 37.5352 121.25V111.758C37.5352 110.75 37.4453 110.118 37.2656 109.86C37.0859 109.594 36.6484 109.461 35.9531 109.461V108.922C36.4297 108.922 36.9883 108.868 37.6289 108.758C38.2773 108.649 38.7227 108.54 38.9648 108.43H39.2227Z" fill="#191919"/>
<path d="M31.2656 117.008C31.5312 116.313 31.9609 115.731 32.5547 115.262C33.1562 114.793 33.7422 114.559 34.3125 114.559C34.8281 114.559 35.2344 114.719 35.5312 115.04C35.8281 115.36 35.9766 115.688 35.9766 116.024C35.9766 116.25 35.8984 116.446 35.7422 116.61C35.5938 116.774 35.4102 116.856 35.1914 116.856C34.8008 116.856 34.5039 116.567 34.3008 115.989C34.1602 115.598 33.9492 115.403 33.668 115.403C33.332 115.403 32.9297 115.633 32.4609 116.094C31.9922 116.547 31.6914 117.02 31.5586 117.512C31.4258 118.004 31.3594 118.68 31.3594 119.54V121.25C31.3594 122.274 31.3711 122.918 31.3945 123.184C31.4258 123.45 31.5391 123.653 31.7344 123.793C31.9297 123.934 32.2773 124.004 32.7773 124.004H33.1055V124.543H28.0078V124.004H28.2539C28.7227 124.004 29.0547 123.942 29.25 123.817C29.4531 123.684 29.5742 123.5 29.6133 123.266C29.6523 123.032 29.6719 122.36 29.6719 121.25V118.543C29.6719 117.512 29.6562 116.868 29.625 116.61C29.6016 116.344 29.4922 116.141 29.2969 116C29.1016 115.852 28.7539 115.778 28.2539 115.778H28.0078V115.25C28.7422 115.165 29.7031 114.934 30.8906 114.559C31.1172 115.176 31.2422 115.993 31.2656 117.008Z" fill="#191919"/>
<path d="M26.5898 122.786H27.0234C26.9531 124.122 26.2969 124.79 25.0547 124.79C24.5234 124.79 24.1016 124.649 23.7891 124.368C23.4844 124.086 23.2852 123.668 23.1914 123.114C22.4102 123.668 21.6953 124.086 21.0469 124.368C20.4062 124.649 19.832 124.79 19.3242 124.79C18.6758 124.79 18.1172 124.602 17.6484 124.227C17.1797 123.852 16.9453 123.356 16.9453 122.739C16.9453 121.934 17.3359 121.231 18.1172 120.629C18.9062 120.028 19.9922 119.442 21.375 118.872L23.1914 118.133V117.665C23.1914 117 23.1484 116.52 23.0625 116.223C22.9766 115.926 22.7539 115.661 22.3945 115.426C22.0352 115.192 21.5625 115.075 20.9766 115.075C19.8047 115.075 19.1523 115.465 19.0195 116.247C18.8945 117.043 18.5664 117.442 18.0352 117.442C17.5586 117.442 17.3203 117.215 17.3203 116.762C17.3203 116.317 17.6367 115.84 18.2695 115.333C18.9023 114.817 19.8867 114.559 21.2227 114.559C22.2148 114.559 22.9844 114.715 23.5312 115.028C24.0781 115.34 24.4375 115.696 24.6094 116.094C24.7891 116.493 24.8789 117.102 24.8789 117.922V121.801C24.8789 122.708 24.9258 123.29 25.0195 123.547C25.1133 123.805 25.3164 123.934 25.6289 123.934C26.1445 123.934 26.4648 123.551 26.5898 122.786ZM23.1914 118.684L21.9141 119.2C19.8984 120.02 18.8906 121.051 18.8906 122.293C18.8906 122.786 19.0195 123.184 19.2773 123.489C19.5352 123.786 19.8711 123.934 20.2852 123.934C20.6523 123.934 21.0781 123.813 21.5625 123.571C22.0469 123.329 22.5898 122.965 23.1914 122.481V118.684Z" fill="#191919"/>
<path d="M13.9336 118.579H14.4375V124.145H13.9336C13.793 123.512 13.5391 122.954 13.1719 122.469C11.7734 124.047 9.98828 124.836 7.81641 124.836C5.51953 124.836 3.64062 124.11 2.17969 122.657C0.726562 121.204 0 119.282 0 116.891C0 115.321 0.335938 113.844 1.00781 112.461C1.67969 111.071 2.61719 110.04 3.82031 109.368C5.02344 108.696 6.34375 108.36 7.78125 108.36C8.96875 108.36 10.043 108.606 11.0039 109.098C11.9727 109.583 12.6953 110.122 13.1719 110.715C13.5078 110.051 13.7109 109.364 13.7812 108.653H14.2969L14.4375 114.676H13.9336C13.582 112.536 12.8633 111.047 11.7773 110.211C10.6992 109.375 9.48047 108.958 8.12109 108.958C6.45703 108.958 5.13281 109.633 4.14844 110.985C3.17188 112.336 2.68359 114.27 2.68359 116.786C2.68359 119.168 3.21875 120.997 4.28906 122.27C5.35938 123.536 6.69141 124.168 8.28516 124.168C9.13672 124.168 10.0078 123.961 10.8984 123.547C11.7891 123.133 12.4922 122.434 13.0078 121.45C13.5312 120.458 13.8398 119.5 13.9336 118.579Z" fill="#191919"/>
</svg>
