<svg width="24" height="24" viewBox="0 0 24 24" fill="none" xmlns="http://www.w3.org/2000/svg">
<g clip-path="url(#clip0_4115_5650)">
<path d="M12 13.5L15 15.5M12 13.5C7.52052 16.2458 4.88172 15.2808 3 14.3508C3 16.4297 3.68122 18.1692 4.69609 19.5M12 13.5L15 8.91396M15 15.5C14.781 17.5373 13.4267 21.6851 10.1556 22.5C8.34064 22.5 6.16762 21.4296 4.69609 19.5M15 15.5L17.5978 10.5M17.5978 10.5L20.876 4.19028C21.1655 3.6134 20.9308 2.91193 20.3519 2.62349C19.7937 2.34536 19.1147 2.55196 18.8076 3.09338L15 8.91396M17.5978 10.5L15 8.91396M4.69609 19.5C5.73446 19.6667 8.28008 19.7 10.1556 18.5" stroke="#B99692" stroke-width="1.5" stroke-linecap="round" stroke-linejoin="round"/>
<path d="M6 4.5L6.22108 5.09745C6.51097 5.88087 6.65592 6.27259 6.94167 6.55834C7.22741 6.84408 7.61913 6.98903 8.40255 7.27892L9 7.5L8.40255 7.72108C7.61913 8.01097 7.22741 8.15592 6.94167 8.44167C6.65592 8.72741 6.51097 9.11913 6.22108 9.90255L6 10.5L5.77892 9.90255C5.48903 9.11913 5.34408 8.72741 5.05833 8.44167C4.77259 8.15592 4.38087 8.01097 3.59745 7.72108L3 7.5L3.59745 7.27892C4.38087 6.98903 4.77259 6.84408 5.05833 6.55833C5.34408 6.27259 5.48903 5.88087 5.77892 5.09745L6 4.5Z" stroke="#B99692" stroke-width="1.5" stroke-linejoin="round"/>
</g>
<defs>
<clipPath id="clip0_4115_5650">
<rect width="24" height="24" fill="white"/>
</clipPath>
</defs>
</svg>
